M48
METRIC,TZ
T1C0.400
T2C0.600
T3C0.600
T4C0.800
T5C1.000
T6C1.100
T7C1.300
%
G90
G05
T1
X71680Y-69550
X94600Y-67970
X97130Y-51705
X111240Y-66920
X113580Y-66080
X113790Y-50980
X117095Y-50244
X118370Y-50260
X118720Y-67970
X119905Y-47145
X120310Y-49520
X121310Y-86420
X122780Y-49090
X125210Y-82270
X134470Y-51700
X140280Y-66090
X142850Y-66910
X149150Y-70950
X149150Y-114730
X159520Y-109440
X159529Y-97083
X160200Y-108690
X160233Y-97807
X161770Y-99256
X161771Y-95230
X162486Y-99981
X162496Y-92580
X163215Y-100705
X163220Y-91340
X163911Y-101429
X163945Y-98950
X165330Y-110930
X165400Y-102878
X166170Y-110180
X166182Y-103603
X166206Y-102224
X166210Y-98050
X166927Y-104328
X166930Y-100220
X167670Y-97680
X167670Y-105052
X168430Y-90110
X168434Y-105776
X169226Y-106501
X169240Y-93880
X169990Y-96310
X170000Y-107226
X199880Y-94970
X213090Y-50260
X223960Y-111900
X224860Y-57620
X228270Y-59040
X228400Y-39800
X230900Y-49070
X258520Y-51400
X285330Y-57560
X296600Y-58940
X316520Y-55190
T2
X45400Y-83760
X56440Y-64620
X94570Y-64080
X104760Y-64080
X120670Y-83730
X186480Y-27300
X204150Y-27300
X247220Y-35950
X287390Y-88800
X312460Y-27300
T3
X276170Y-80810
X276170Y-90970
X277950Y-80810
X277950Y-90970
X279730Y-80810
X279730Y-90970
X281510Y-80810
X281510Y-90970
X283290Y-80810
X283290Y-90970
X285070Y-80810
X285070Y-90970
X286850Y-80810
X286850Y-90970
X288630Y-80810
X288630Y-90970
X290410Y-80810
X290410Y-90970
X292190Y-80810
X292190Y-90970
X293970Y-80810
X293970Y-90970
X295750Y-80810
X295750Y-90970
X297530Y-80810
X297530Y-90970
X299310Y-80810
X299310Y-90970
T4
X48930Y-60860
X51220Y-69710
X56220Y-69710
X56850Y-80830
X56850Y-93530
X61630Y-60860
X68280Y-101000
X68280Y-106000
X73490Y-101020
X73490Y-106020
X79590Y-102200
X79590Y-104700
X90450Y-89380
X94595Y-58765
X94595Y-74005
X95330Y-89380
X97135Y-58765
X97135Y-74005
X99675Y-58765
X99675Y-74005
X102215Y-58765
X102215Y-74005
X104755Y-58765
X104755Y-74005
X107295Y-58765
X107295Y-74005
X109835Y-58765
X109835Y-74005
X112285Y-41750
X112375Y-58765
X112375Y-74005
X114825Y-41750
X114900Y-95100
X114900Y-110340
X114915Y-58765
X114915Y-74005
X117365Y-41750
X117440Y-95100
X117440Y-110340
X117455Y-58765
X117455Y-74005
X119905Y-41750
X119980Y-95100
X119980Y-110340
X119995Y-58765
X119995Y-74005
X122445Y-41750
X122520Y-95100
X122520Y-110340
X122535Y-58765
X122535Y-74005
X124985Y-41750
X125060Y-95100
X125060Y-110340
X125075Y-58765
X125075Y-74005
X127525Y-41750
X127600Y-95100
X127600Y-110340
X127615Y-58765
X127615Y-74005
X130065Y-41750
X130140Y-95100
X130140Y-110340
X130155Y-58765
X130155Y-74005
X132605Y-41750
X132680Y-95100
X132680Y-110340
X132695Y-58765
X132695Y-74005
X135220Y-95100
X135220Y-110340
X135235Y-58765
X135235Y-74005
X136870Y-41750
X137760Y-95100
X137760Y-110340
X137775Y-58765
X137775Y-74005
X139410Y-41750
X140300Y-95100
X140300Y-110340
X140315Y-58765
X140315Y-74005
X141950Y-41750
X142840Y-95100
X142840Y-110340
X142855Y-58765
X142855Y-74005
X144490Y-41750
X147030Y-41750
X182690Y-88800
X182690Y-91340
X182690Y-93880
X182690Y-96420
X182690Y-98960
X182690Y-101500
X182690Y-104040
X182690Y-106580
X182690Y-109120
X182690Y-111660
X184090Y-82650
X184460Y-117490
X189090Y-82650
X189460Y-117490
X190310Y-88800
X190310Y-91340
X190310Y-93880
X190310Y-96420
X190310Y-98960
X190310Y-101500
X190310Y-104040
X190310Y-106580
X190310Y-109120
X190310Y-111660
X194500Y-33490
X199500Y-33490
X204100Y-43420
X207190Y-107640
X207190Y-120340
X209540Y-55340
X209540Y-60340
X210230Y-85350
X210230Y-90350
X211240Y-70730
X211260Y-107640
X211260Y-120340
X214700Y-104850
X215700Y-54320
X215700Y-61940
X215700Y-84300
X215700Y-91920
X216800Y-43420
X217075Y-113740
X217075Y-121360
X218215Y-78240
X218240Y-54320
X218240Y-61940
X218240Y-84300
X218240Y-91920
X219615Y-113740
X219615Y-121360
X220715Y-78240
X220740Y-46940
X220780Y-54320
X220780Y-61940
X220780Y-84300
X220780Y-91920
X222155Y-113740
X222155Y-121360
X223240Y-46940
X223320Y-54320
X223320Y-61940
X223320Y-84300
X223320Y-91920
X223940Y-70730
X224695Y-113740
X224695Y-121360
X225860Y-54320
X225860Y-61940
X225860Y-84300
X225860Y-91920
X227235Y-113740
X227235Y-121360
X227400Y-104850
X228400Y-54320
X228400Y-61940
X228400Y-84300
X228400Y-91920
X229775Y-113740
X229775Y-121360
X230120Y-34510
X230120Y-37010
X230165Y-100340
X230940Y-54320
X230940Y-61940
X230940Y-84300
X230940Y-91920
X232315Y-113740
X232315Y-121360
X232665Y-100340
X233480Y-54320
X233480Y-61940
X233480Y-84300
X233480Y-91920
X242170Y-108800
X242290Y-116650
X254390Y-31710
X254870Y-108800
X254990Y-116650
X258220Y-37370
X260760Y-37370
X263130Y-77110
X263130Y-89810
X263300Y-37370
X266500Y-43250
X266990Y-97380
X266990Y-101380
X266990Y-108850
X267090Y-31710
X269000Y-43250
X270880Y-104850
X271070Y-78280
X271070Y-93520
X273610Y-78280
X273610Y-93520
X275880Y-104850
X276150Y-78280
X276150Y-93520
X276580Y-48110
X276580Y-52240
X278430Y-62140
X278430Y-74840
X278690Y-78280
X278690Y-93520
X279690Y-97380
X279690Y-101380
X279690Y-108850
X281230Y-78280
X281230Y-93520
X283270Y-67000
X283270Y-72000
X283770Y-78280
X283770Y-93520
X283860Y-104960
X285370Y-108420
X285370Y-121120
X286310Y-78280
X286310Y-93520
X286920Y-99980
X287390Y-67000
X287390Y-72000
X288850Y-78280
X288850Y-93520
X289280Y-48110
X289280Y-52240
X289420Y-99980
X291390Y-62140
X291390Y-74840
X291390Y-78280
X291390Y-93520
X291900Y-109070
X293930Y-78280
X293930Y-93520
X295280Y-67000
X295280Y-72000
X296470Y-78280
X296470Y-93520
X296560Y-104960
X299010Y-78280
X299010Y-93520
X299730Y-68730
X299730Y-71230
X299740Y-74900
X301000Y-97320
X301020Y-101530
X301550Y-78280
X301550Y-93520
X304090Y-78280
X304090Y-93520
X304600Y-109070
X305160Y-67000
X305160Y-72000
X312440Y-74900
X313700Y-97320
X313720Y-101530
T5
X53730Y-51730
X53950Y-37130
X58020Y-100680
X58020Y-105680
X58730Y-51730
X58950Y-37130
X84710Y-33560
X87250Y-33560
X89790Y-33560
X92330Y-33560
X94870Y-33560
X97410Y-33560
X114830Y-33560
X117370Y-33560
X119910Y-33560
X122450Y-33560
X124990Y-33560
X127530Y-33560
X130070Y-33560
X132610Y-33560
X135150Y-33560
X137690Y-33560
X140230Y-33560
X142770Y-33560
X145310Y-33560
X147850Y-33560
X150390Y-33560
X207710Y-33560
X210250Y-33560
X212790Y-33560
X215330Y-33560
T6
X67050Y-45250
X67050Y-57950
X71690Y-45250
X71690Y-57950
X76000Y-45250
X76000Y-57950
X102210Y-89420
X114910Y-89420
X199860Y-39190
X199860Y-51890
X228720Y-74100
X240590Y-89210
X241250Y-61700
X241420Y-74100
X253290Y-89210
X253950Y-61700
T7
X241770Y-40830
X244270Y-30830
X246770Y-40830
X275080Y-40830
X277580Y-30830
X280080Y-40830
X291630Y-40830
X294130Y-30830
X296630Y-40830
T0
M30
