G04 #@! TF.GenerationSoftware,KiCad,Pcbnew,(6.0.9)*
G04 #@! TF.CreationDate,2022-12-25T22:16:42-05:00*
G04 #@! TF.ProjectId,TSF_Soundboard,5453465f-536f-4756-9e64-626f6172642e,rev?*
G04 #@! TF.SameCoordinates,Original*
G04 #@! TF.FileFunction,Soldermask,Bot*
G04 #@! TF.FilePolarity,Negative*
%FSLAX46Y46*%
G04 Gerber Fmt 4.6, Leading zero omitted, Abs format (unit mm)*
G04 Created by KiCad (PCBNEW (6.0.9)) date 2022-12-25 22:16:42*
%MOMM*%
%LPD*%
G01*
G04 APERTURE LIST*
%ADD10R,1.600000X1.600000*%
%ADD11O,1.600000X1.600000*%
%ADD12C,1.600000*%
%ADD13R,2.200000X2.200000*%
%ADD14O,2.200000X2.200000*%
%ADD15R,1.700000X1.700000*%
%ADD16O,1.700000X1.700000*%
%ADD17R,2.000000X2.000000*%
%ADD18C,2.000000*%
%ADD19R,1.000000X1.000000*%
%ADD20O,1.000000X1.000000*%
%ADD21C,2.340000*%
%ADD22R,1.500000X1.500000*%
%ADD23C,1.500000*%
G04 APERTURE END LIST*
D10*
X215700000Y-91920000D03*
D11*
X218240000Y-91920000D03*
X220780000Y-91920000D03*
X223320000Y-91920000D03*
X225860000Y-91920000D03*
X228400000Y-91920000D03*
X230940000Y-91920000D03*
X233480000Y-91920000D03*
X233480000Y-84300000D03*
X230940000Y-84300000D03*
X228400000Y-84300000D03*
X225860000Y-84300000D03*
X223320000Y-84300000D03*
X220780000Y-84300000D03*
X218240000Y-84300000D03*
X215700000Y-84300000D03*
D12*
X209540000Y-55340000D03*
X209540000Y-60340000D03*
D13*
X240590000Y-89210000D03*
D14*
X253290000Y-89210000D03*
D12*
X68280000Y-101000000D03*
X68280000Y-106000000D03*
X204100000Y-43420000D03*
D11*
X216800000Y-43420000D03*
D10*
X220740000Y-46940000D03*
D12*
X223240000Y-46940000D03*
X287390000Y-72000000D03*
X287390000Y-67000000D03*
D15*
X84710000Y-33560000D03*
D16*
X87250000Y-33560000D03*
X89790000Y-33560000D03*
X92330000Y-33560000D03*
X94870000Y-33560000D03*
X97410000Y-33560000D03*
D10*
X299730000Y-71230000D03*
D12*
X299730000Y-68730000D03*
D13*
X67050000Y-45250000D03*
D14*
X67050000Y-57950000D03*
D12*
X305160000Y-72000000D03*
X305160000Y-67000000D03*
X61630000Y-60860000D03*
D11*
X48930000Y-60860000D03*
D13*
X114910000Y-89420000D03*
D14*
X102210000Y-89420000D03*
D10*
X94595000Y-74005000D03*
D11*
X97135000Y-74005000D03*
X99675000Y-74005000D03*
X102215000Y-74005000D03*
X104755000Y-74005000D03*
X107295000Y-74005000D03*
X109835000Y-74005000D03*
X112375000Y-74005000D03*
X114915000Y-74005000D03*
X117455000Y-74005000D03*
X119995000Y-74005000D03*
X122535000Y-74005000D03*
X125075000Y-74005000D03*
X127615000Y-74005000D03*
X130155000Y-74005000D03*
X132695000Y-74005000D03*
X135235000Y-74005000D03*
X137775000Y-74005000D03*
X140315000Y-74005000D03*
X142855000Y-74005000D03*
X142855000Y-58765000D03*
X140315000Y-58765000D03*
X137775000Y-58765000D03*
X135235000Y-58765000D03*
X132695000Y-58765000D03*
X130155000Y-58765000D03*
X127615000Y-58765000D03*
X125075000Y-58765000D03*
X122535000Y-58765000D03*
X119995000Y-58765000D03*
X117455000Y-58765000D03*
X114915000Y-58765000D03*
X112375000Y-58765000D03*
X109835000Y-58765000D03*
X107295000Y-58765000D03*
X104755000Y-58765000D03*
X102215000Y-58765000D03*
X99675000Y-58765000D03*
X97135000Y-58765000D03*
X94595000Y-58765000D03*
D12*
X289280000Y-52240000D03*
D11*
X276580000Y-52240000D03*
D12*
X254390000Y-31710000D03*
D11*
X267090000Y-31710000D03*
D17*
X53730000Y-51730000D03*
D18*
X58730000Y-51730000D03*
D12*
X189090000Y-82650000D03*
X184090000Y-82650000D03*
X313720000Y-101530000D03*
D11*
X301020000Y-101530000D03*
D17*
X53950000Y-37130000D03*
D18*
X58950000Y-37130000D03*
D12*
X73490000Y-101020000D03*
X73490000Y-106020000D03*
D13*
X76000000Y-45250000D03*
D14*
X76000000Y-57950000D03*
D12*
X285370000Y-108420000D03*
D11*
X285370000Y-121120000D03*
D10*
X79590000Y-102200000D03*
D12*
X79590000Y-104700000D03*
D10*
X271070000Y-93520000D03*
D19*
X276170000Y-90970000D03*
D11*
X273610000Y-93520000D03*
D20*
X277950000Y-90970000D03*
X279730000Y-90970000D03*
D11*
X276150000Y-93520000D03*
D20*
X281510000Y-90970000D03*
D11*
X278690000Y-93520000D03*
D20*
X283290000Y-90970000D03*
D11*
X281230000Y-93520000D03*
X283770000Y-93520000D03*
D20*
X285070000Y-90970000D03*
D11*
X286310000Y-93520000D03*
D20*
X286850000Y-90970000D03*
X288630000Y-90970000D03*
D11*
X288850000Y-93520000D03*
D20*
X290410000Y-90970000D03*
D11*
X291390000Y-93520000D03*
D20*
X292190000Y-90970000D03*
D11*
X293930000Y-93520000D03*
X296470000Y-93520000D03*
D20*
X293970000Y-90970000D03*
X295750000Y-90970000D03*
D11*
X299010000Y-93520000D03*
D20*
X297530000Y-90970000D03*
D11*
X301550000Y-93520000D03*
X304090000Y-93520000D03*
D20*
X299310000Y-90970000D03*
X299310000Y-80810000D03*
D11*
X304090000Y-78280000D03*
X301550000Y-78280000D03*
D20*
X297530000Y-80810000D03*
X295750000Y-80810000D03*
D11*
X299010000Y-78280000D03*
D20*
X293970000Y-80810000D03*
D11*
X296470000Y-78280000D03*
X293930000Y-78280000D03*
D20*
X292190000Y-80810000D03*
D11*
X291390000Y-78280000D03*
D20*
X290410000Y-80810000D03*
D11*
X288850000Y-78280000D03*
D20*
X288630000Y-80810000D03*
X286850000Y-80810000D03*
D11*
X286310000Y-78280000D03*
X283770000Y-78280000D03*
D20*
X285070000Y-80810000D03*
D11*
X281230000Y-78280000D03*
D20*
X283290000Y-80810000D03*
X281510000Y-80810000D03*
D11*
X278690000Y-78280000D03*
X276150000Y-78280000D03*
D20*
X279730000Y-80810000D03*
D11*
X273610000Y-78280000D03*
D20*
X277950000Y-80810000D03*
X276170000Y-80810000D03*
D11*
X271070000Y-78280000D03*
D12*
X56850000Y-80830000D03*
D11*
X56850000Y-93530000D03*
D13*
X199860000Y-39190000D03*
D14*
X199860000Y-51890000D03*
D21*
X246770000Y-40830000D03*
X244270000Y-30830000D03*
X241770000Y-40830000D03*
D12*
X301000000Y-97320000D03*
D11*
X313700000Y-97320000D03*
D13*
X228720000Y-74100000D03*
D14*
X241420000Y-74100000D03*
D22*
X263300000Y-37370000D03*
D23*
X260760000Y-37370000D03*
X258220000Y-37370000D03*
D10*
X217075000Y-121360000D03*
D11*
X219615000Y-121360000D03*
X222155000Y-121360000D03*
X224695000Y-121360000D03*
X227235000Y-121360000D03*
X229775000Y-121360000D03*
X232315000Y-121360000D03*
X232315000Y-113740000D03*
X229775000Y-113740000D03*
X227235000Y-113740000D03*
X224695000Y-113740000D03*
X222155000Y-113740000D03*
X219615000Y-113740000D03*
X217075000Y-113740000D03*
D12*
X266990000Y-108850000D03*
D11*
X279690000Y-108850000D03*
D10*
X232665112Y-100340000D03*
D12*
X230165112Y-100340000D03*
D10*
X182690000Y-88800000D03*
D11*
X182690000Y-91340000D03*
X182690000Y-93880000D03*
X182690000Y-96420000D03*
X182690000Y-98960000D03*
X182690000Y-101500000D03*
X182690000Y-104040000D03*
X182690000Y-106580000D03*
X182690000Y-109120000D03*
X182690000Y-111660000D03*
X190310000Y-111660000D03*
X190310000Y-109120000D03*
X190310000Y-106580000D03*
X190310000Y-104040000D03*
X190310000Y-101500000D03*
X190310000Y-98960000D03*
X190310000Y-96420000D03*
X190310000Y-93880000D03*
X190310000Y-91340000D03*
X190310000Y-88800000D03*
D12*
X278430000Y-62140000D03*
D11*
X278430000Y-74840000D03*
D10*
X269000000Y-43250000D03*
D12*
X266500000Y-43250000D03*
X291390000Y-62140000D03*
D11*
X291390000Y-74840000D03*
D23*
X95330000Y-89380000D03*
X90450000Y-89380000D03*
D12*
X189460000Y-117490000D03*
X184460000Y-117490000D03*
D17*
X58020000Y-100680000D03*
D18*
X58020000Y-105680000D03*
D12*
X270880000Y-104850000D03*
X275880000Y-104850000D03*
D10*
X147030000Y-41750000D03*
D11*
X144490000Y-41750000D03*
X141950000Y-41750000D03*
X139410000Y-41750000D03*
X136870000Y-41750000D03*
D10*
X286920000Y-99980000D03*
D12*
X289420000Y-99980000D03*
D10*
X218214888Y-78240000D03*
D12*
X220714888Y-78240000D03*
X210230000Y-85350000D03*
X210230000Y-90350000D03*
X254870000Y-108800000D03*
D11*
X242170000Y-108800000D03*
D10*
X230120000Y-34510000D03*
D12*
X230120000Y-37010000D03*
X211260000Y-107640000D03*
D11*
X211260000Y-120340000D03*
D13*
X241250000Y-61700000D03*
D14*
X253950000Y-61700000D03*
D12*
X289280000Y-48110000D03*
D11*
X276580000Y-48110000D03*
D12*
X263130000Y-89810000D03*
D11*
X263130000Y-77110000D03*
D10*
X215700000Y-61940000D03*
D11*
X218240000Y-61940000D03*
X220780000Y-61940000D03*
X223320000Y-61940000D03*
X225860000Y-61940000D03*
X228400000Y-61940000D03*
X230940000Y-61940000D03*
X233480000Y-61940000D03*
X233480000Y-54320000D03*
X230940000Y-54320000D03*
X228400000Y-54320000D03*
X225860000Y-54320000D03*
X223320000Y-54320000D03*
X220780000Y-54320000D03*
X218240000Y-54320000D03*
X215700000Y-54320000D03*
D12*
X304600000Y-109070000D03*
D11*
X291900000Y-109070000D03*
D12*
X295280000Y-72000000D03*
X295280000Y-67000000D03*
X214700000Y-104850000D03*
D11*
X227400000Y-104850000D03*
D12*
X312440000Y-74900000D03*
D11*
X299740000Y-74900000D03*
D10*
X114900000Y-110340000D03*
D11*
X117440000Y-110340000D03*
X119980000Y-110340000D03*
X122520000Y-110340000D03*
X125060000Y-110340000D03*
X127600000Y-110340000D03*
X130140000Y-110340000D03*
X132680000Y-110340000D03*
X135220000Y-110340000D03*
X137760000Y-110340000D03*
X140300000Y-110340000D03*
X142840000Y-110340000D03*
X142840000Y-95100000D03*
X140300000Y-95100000D03*
X137760000Y-95100000D03*
X135220000Y-95100000D03*
X132680000Y-95100000D03*
X130140000Y-95100000D03*
X127600000Y-95100000D03*
X125060000Y-95100000D03*
X122520000Y-95100000D03*
X119980000Y-95100000D03*
X117440000Y-95100000D03*
X114900000Y-95100000D03*
D12*
X199500000Y-33490000D03*
X194500000Y-33490000D03*
X211240000Y-70730000D03*
D11*
X223940000Y-70730000D03*
D15*
X114830000Y-33560000D03*
D16*
X117370000Y-33560000D03*
X119910000Y-33560000D03*
X122450000Y-33560000D03*
X124990000Y-33560000D03*
X127530000Y-33560000D03*
X130070000Y-33560000D03*
X132610000Y-33560000D03*
X135150000Y-33560000D03*
X137690000Y-33560000D03*
X140230000Y-33560000D03*
X142770000Y-33560000D03*
X145310000Y-33560000D03*
X147850000Y-33560000D03*
X150390000Y-33560000D03*
D13*
X71690000Y-45250000D03*
D14*
X71690000Y-57950000D03*
D21*
X296630000Y-40830000D03*
X294130000Y-30830000D03*
X291630000Y-40830000D03*
D12*
X242290000Y-116650000D03*
D11*
X254990000Y-116650000D03*
D12*
X283270000Y-72000000D03*
X283270000Y-67000000D03*
D15*
X207710000Y-33560000D03*
D16*
X210250000Y-33560000D03*
X212790000Y-33560000D03*
X215330000Y-33560000D03*
D12*
X266990000Y-101380000D03*
D11*
X279690000Y-101380000D03*
D21*
X280080000Y-40830000D03*
X277580000Y-30830000D03*
X275080000Y-40830000D03*
D12*
X51220000Y-69710000D03*
X56220000Y-69710000D03*
X207190000Y-107640000D03*
D11*
X207190000Y-120340000D03*
D12*
X296560000Y-104960000D03*
D11*
X283860000Y-104960000D03*
D12*
X266990000Y-97380000D03*
D11*
X279690000Y-97380000D03*
D10*
X112285000Y-41750000D03*
D11*
X114825000Y-41750000D03*
X117365000Y-41750000D03*
X119905000Y-41750000D03*
X122445000Y-41750000D03*
X124985000Y-41750000D03*
X127525000Y-41750000D03*
X130065000Y-41750000D03*
X132605000Y-41750000D03*
M02*
